PathFileType	4	(X/Y/Z)	S01_0016_Gait_markers.trc
DataRate	CameraRate	NumFrames	NumMarkers	Units	OrigDataRate	OrigDataStartFrame	OrigNumFrames
250.000000	250.000000	4	54	mm	250.000000	267	356
Frame#	Time	HEAD_ANT			R_HEAD			L_HEAD			C7			R_BACK			L_BACK			STERNUM			R_ACROMION			R_HUM_PROX			R_HUM_ANT			R_HUM_POST			R_ELBOW_LAT			R_ELBOW_MED			R_FOREARM			R_WIRST_LAT			R_WRITS_MED			R_HAND			L_ACROMION			L_HUM_PROX			L_HUM_ANT			L_HUM_POST			L_ELBOW_LAT			L_ELBOW_MED			L_FOREARM			L_WRIST_LAT			L_WIRST_MED			L_HAND			R_ILIAC			SACRUM			L_ILIAC			R_GTROCH			R_THIGH__1			R_THIGH_2			R_THIGH_3			R_THIGH_4			R_SHANK_1			R_SHANK_2			R_SHANK_3			R_SHANK_4			R_HEEL			R_FOOT_LAT			R_FOOT_MED			L_GTROCH			L_THIGH_1			L_THIGH_2			L_THIGH_3			L_THIGH_4			L_SHANK_1			L_SHANK_2			L_SHANK_3			L_SHANK_4			L_HEEL			L_FOOT_LAT			L_FOOT_MED			
		X1	Y1	Z1	X2	Y2	Z2	X3	Y3	Z3	X4	Y4	Z4	X5	Y5	Z5	X6	Y6	Z6	X7	Y7	Z7	X8	Y8	Z8	X9	Y9	Z9	X10	Y10	Z10	X11	Y11	Z11	X12	Y12	Z12	X13	Y13	Z13	X14	Y14	Z14	X15	Y15	Z15	X16	Y16	Z16	X17	Y17	Z17	X18	Y18	Z18	X19	Y19	Z19	X20	Y20	Z20	X21	Y21	Z21	X22	Y22	Z22	X23	Y23	Z23	X24	Y24	Z24	X25	Y25	Z25	X26	Y26	Z26	X27	Y27	Z27	X28	Y28	Z28	X29	Y29	Z29	X30	Y30	Z30	X31	Y31	Z31	X32	Y32	Z32	X33	Y33	Z33	X34	Y34	Z34	X35	Y35	Z35	X36	Y36	Z36	X37	Y37	Z37	X38	Y38	Z38	X39	Y39	Z39	X40	Y40	Z40	X41	Y41	Z41	X42	Y42	Z42	X43	Y43	Z43	X44	Y44	Z44	X45	Y45	Z45	X46	Y46	Z46	X47	Y47	Z47	X48	Y48	Z48	X49	Y49	Z49	X50	Y50	Z50	X51	Y51	Z51	X52	Y52	Z52	X53	Y53	Z53	X54	Y54	Z54	

268	1.068	1517.441772460938	1751.9580078125	-323.8224182128902	1457.072631835938	1705.455688476562	-245.1610260009762	1458.32373046875	1700.755493164062	-392.0167236328121	1316.9033203125	1534.530639648438	-319.7487182617184	1237.397705078125	1339.513305664062	-256.8234863281247	1247.359008789062	1341.6162109375	-397.6395568847653	1491.64208984375	1372.851806640625	-301.2633666992185	1377.132080078125	1490.968994140625	-142.3126983642575	1314.394409179688	1337.063598632812	-52.7189826965329	1368.001831054688	1248.343627929688	-34.81397247314425	1247.896606445312	1259.067260742188	-47.73015594482394	1286.220092773438	1150.192993164062	-27.62528419494603	1279.171020507812	1142.68505859375	-108.8344802856443	1379.3037109375	964.7164916992188	-4.191532135009552	1422.857421875	897.726318359375	-35.61240386962871	1350.113891601562	876.0761108398438	-7.404621601104542	1417.686767578125	812.0337524414062	23.42014503479022	1406.160888671875	1487.292114257812	-478.8742370605465	1392.880981445312	1322.183715820313	-578.2919921874997	1455.241821289062	1242.013427734375	-572.4784545898435	1337.110107421875	1244.369262695313	-608.9543457031248	1398.917358398438	1140.721923828125	-612.9909057617185	1342.25439453125	1131.432861328125	-560.6348876953123	1524.92919921875	983.9736938476564	-565.2973632812498	1557.279052734375	933.9548950195314	-504.0203857421873	1524.609741210938	898.9786987304689	-566.3858642578123	1608.110229492188	859.4719238281251	-540.5453491210935	1376.06103515625	1090.06982421875	-141.7784576416013	1259.664428710938	1060.646850585938	-320.3075561523435	1397.682495117188	1080.348388671875	-485.2255554199216	1338.232421875	937.861572265625	-122.7487487792967	1459.530029296875	668.5205078125	-133.6994171142577	1510.126586914062	698.8092041015625	-126.8420410156248	1541.633544921875	599.9578247070312	-157.078170776367	1477.106323242188	589.271240234375	-151.2805175781249	1436.108642578125	383.8858337402344	-146.3716888427734	1486.552612304688	351.7891540527344	-155.1961212158202	1465.67333984375	269.5520019531251	-171.904067993164	1404.50537109375	289.3798828125001	-166.4012603759765	1331.986450195312	86.9259872436524	-253.8096618652343	1474.85009765625	32.97856521606449	-152.4757080078125	1540.21484375	45.40880966186528	-231.0430450439453	1356.29541015625	966.9916992187501	-490.2165527343748	1404.687133789062	670.5382080078126	-457.6514892578123	1357.783447265625	698.3070068359376	-480.4684143066405	1325.693237304688	599.8953857421876	-447.2841491699218	1387.65283203125	593.5150146484376	-432.9451904296874	1305.130737304688	331.9595031738282	-423.2714538574218	1246.429809570312	318.864471435547	-431.1849060058593	1229.45654296875	235.0165100097657	-411.5381469726562	1291.901611328125	233.1759490966798	-397.3181762695312	1154.442749023438	61.20434951782234	-339.453125	1330.397094726562	20.93907737731942	-399.6650085449219	1363.408325195312	27.0191383361817	-291.7691955566406	
269	1.072	1522.795166015625	1751.414306640625	-323.4134521484371	1462.4580078125	1704.91943359375	-244.8178710937496	1463.79296875	1700.352294921875	-391.6848754882809	1322.311645507812	1533.97705078125	-319.4960632324215	1242.60791015625	1338.952026367188	-257.024475097656	1252.579833984375	1341.183227539062	-397.5627746582028	1496.906616210938	1372.292114257812	-301.0582275390622	1382.339599609375	1490.433471679688	-142.0091857910153	1319.324951171875	1336.609985351562	-52.59818649291962	1372.650390625	1247.795288085938	-34.57882308959933	1252.515502929688	1258.628295898438	-47.80679702758761	1291.252685546875	1149.960815429688	-27.45396041870092	1284.01611328125	1142.382690429688	-108.7828826904294	1383.611450195312	964.3878173828125	-3.862004280090118	1427.15283203125	897.3151245117188	-35.20754241943339	1354.392700195312	875.5686645507812	-7.314505577087208	1421.778198242188	811.6080932617188	23.91825294494647	1411.67578125	1486.838989257812	-478.7038574218747	1398.600219726562	1321.703857421875	-578.1066284179684	1461.090209960938	1241.528198242188	-572.3096923828123	1342.853759765625	1243.943725585938	-608.9870605468748	1404.707641601562	1140.231201171875	-612.8917236328123	1348.147827148438	1131.069580078125	-560.720031738281	1531.443481445312	984.4071044921876	-564.199523925781	1563.832763671875	934.6135864257814	-503.0636291503904	1531.64501953125	899.3963623046876	-565.2534179687498	1615.171997070312	860.2974243164064	-539.1055908203123	1381.357055664062	1089.389526367188	-141.5829772949216	1264.812744140625	1060.218017578125	-319.8608703613279	1402.474243164062	1079.800415039062	-485.5333557128904	1343.924926757812	937.3240966796875	-122.5380477905271	1465.604370117188	668.3690185546875	-133.7741088867186	1516.084350585938	698.6404418945312	-127.2204208374022	1547.921997070312	600.034423828125	-157.4496154785155	1483.37841796875	589.4325561523438	-151.123825073242	1446.303100585938	382.1496887207032	-145.9723815917968	1497.487548828125	351.2542114257813	-155.109878540039	1478.442016601562	268.4373168945313	-171.729751586914	1416.814819335938	287.0242004394532	-165.8861694335937	1348.657104492188	82.22766876220709	-252.9110260009765	1493.123291015625	31.83170509338382	-151.9437866210938	1558.145263671875	45.64689636230474	-230.5397644042969	1360.86279296875	966.6531982421876	-489.8502502441404	1406.93603515625	670.3995361328126	-457.7531433105467	1360.185791015625	698.3640747070314	-480.5435791015623	1327.429443359375	600.1941528320314	-447.3696899414061	1389.687377929688	593.2993164062501	-432.9147949218749	1305.699951171875	332.2686767578126	-423.4163513183593	1246.940673828125	319.3701782226564	-431.0789489746093	1229.827758789062	235.3801422119141	-411.2903747558593	1292.6298828125	233.2789611816407	-397.6214294433593	1154.541259765625	61.84056854248055	-339.1940002441406	1330.173217773438	21.04882621765146	-399.5990600585938	1363.277465820312	26.92708778381354	-291.8402404785156	
270	1.076	1528.243896484375	1750.9306640625	-323.1459655761715	1467.786865234375	1704.347778320312	-244.4844818115231	1469.032958984375	1699.798828125	-391.3041381835934	1327.666137695312	1533.428588867188	-319.3464355468747	1246.788818359375	1338.067993164062	-257.1996154785153	1257.978149414062	1340.69873046875	-397.5263977050778	1502.25537109375	1371.6650390625	-300.8374938964841	1387.524780273438	1489.86572265625	-141.7597351074215	1324.150390625	1336.237426757812	-52.48811340332001	1377.306762695312	1247.29150390625	-34.21503829956027	1257.258422851562	1258.346313476562	-47.90097427368136	1295.858276367188	1149.450561523438	-27.34821701049779	1288.611083984375	1141.972778320312	-108.7563323974607	1387.94921875	963.8284912109375	-3.511965513229156	1431.425170898438	896.8162841796875	-34.81336212158183	1358.613525390625	875.0777587890625	-7.159934520721241	1425.761352539062	811.1676635742188	24.363084793091	1417.038696289062	1486.190673828125	-478.5578918457028	1404.228637695312	1321.246215820313	-577.9748535156247	1466.609497070312	1241.112060546875	-572.0163574218748	1348.692260742188	1243.455200195313	-609.0303955078123	1410.623291015625	1139.813842773438	-612.870422363281	1354.401123046875	1130.30859375	-560.6715087890623	1537.807250976562	984.8120117187501	-563.3836669921873	1570.417358398438	935.2752685546876	-502.0514526367185	1538.88232421875	899.7161254882814	-564.8012695312498	1622.20263671875	861.0491943359376	-537.7747802734373	1386.656005859375	1088.852783203125	-141.3111724853513	1269.993408203125	1059.7529296875	-319.4975891113279	1407.12060546875	1079.266845703125	-485.248107910156	1349.530151367188	936.7025146484375	-122.3797073364256	1471.591552734375	668.0011596679688	-134.0144042968749	1521.975341796875	698.3916015625	-127.1607513427733	1554.042602539062	599.756591796875	-157.6419830322264	1489.723876953125	589.0883178710938	-151.713653564453	1456.42822265625	380.4024353027344	-145.8156585693359	1508.26220703125	350.7465515136719	-155.0198211669921	1491.208862304688	267.6364746093751	-171.3682708740234	1429.059936523438	284.4924316406251	-165.5868225097656	1365.797607421875	78.14047241210943	-251.8290557861328	1511.370483398438	31.09906959533695	-151.3549957275391	1575.8720703125	45.97238540649419	-230.2092437744141	1365.444580078125	966.1721191406251	-489.6007385253904	1409.503173828125	670.0540161132814	-458.4874267578123	1361.054443359375	697.4705810546876	-478.7463073730467	1329.44873046875	600.5162353515626	-447.1513061523436	1391.46533203125	593.0487060546876	-433.1859130859374	1306.364990234375	332.6683959960939	-423.5712890624999	1247.513671875	319.8266601562501	-430.9650268554687	1230.237060546875	235.9680786132813	-411.2210998535156	1293.10107421875	233.4945220947266	-397.5960083007812	1154.2216796875	62.87678146362313	-339.6293334960938	1329.972045898438	21.01100921630868	-399.4525451660156	1362.309692382812	26.19876098632819	-291.5868225097656	
271	1.08	1533.656127929688	1750.280639648438	-322.6817932128902	1473.181762695312	1703.539428710938	-244.2073516845699	1474.601318359375	1699.213134765625	-391.024261474609	1333.0771484375	1532.88427734375	-319.2001342773434	1251.985717773438	1337.411743164062	-256.9681701660153	1263.163940429688	1340.214965820312	-397.2709655761716	1507.484741210938	1370.74853515625	-300.6063842773435	1392.787963867188	1489.314819335938	-141.6649169921872	1329.056030273438	1335.678955078125	-52.29365921020478	1381.959716796875	1246.656005859375	-34.12688064575168	1262.150756835938	1257.87060546875	-47.7329788208005	1300.159912109375	1148.91552734375	-27.32460594177221	1293.173095703125	1141.502197265625	-108.7346191406247	1392.259155273438	963.2776489257812	-3.083388566970611	1435.763671875	896.14111328125	-34.43813705444316	1362.927001953125	874.4689331054688	-7.077378273010059	1429.943603515625	810.6163940429688	24.68946075439471	1422.612548828125	1485.533203125	-478.3438720703122	1409.769165039062	1320.626953125	-577.8430786132809	1472.260131835938	1240.562255859375	-571.690734863281	1354.456420898438	1242.936157226563	-609.2271728515623	1416.4248046875	1139.298828125	-612.7862548828123	1360.123413085938	1129.531860351563	-560.7728881835935	1544.290771484375	984.9311523437501	-562.596008300781	1576.9111328125	935.6787719726564	-501.1648864746091	1545.75732421875	899.9353027343751	-563.6657104492185	1629.248779296875	861.8167724609376	-536.4575195312498	1391.931640625	1088.23193359375	-141.075744628906	1275.2509765625	1059.050048828125	-319.0806579589841	1412.09033203125	1078.612060546875	-485.0612182617185	1355.16650390625	936.0182495117188	-122.2161636352537	1477.433959960938	667.5228271484375	-134.295928955078	1527.718872070312	698.0917358398438	-127.3971557617186	1560.074951171875	599.628173828125	-157.9740142822264	1495.797241210938	588.8410034179688	-151.9100952148436	1466.568603515625	378.9326782226563	-145.3209991455077	1518.972045898438	350.2353210449219	-154.8000946044921	1503.811645507812	266.7995605468751	-171.0208435058593	1441.257690429688	282.1763000488282	-165.1259460449218	1382.899658203125	74.11479949951178	-251.1374053955078	1529.620727539062	30.27648544311527	-150.7725524902344	1593.603637695312	46.45034027099614	-229.9786987304688	1370.176879882812	965.6934814453126	-489.1305541992185	1411.83447265625	669.7154541015626	-458.6570739746092	1363.148681640625	697.0982055664064	-477.8846740722655	1331.348388671875	600.6218872070314	-446.9971313476561	1393.659545898438	593.4142456054689	-434.0629882812499	1307.117065429688	332.9292297363282	-423.7257995605468	1248.158203125	320.2967834472657	-430.8524780273437	1230.755126953125	236.7283477783204	-411.0849914550781	1293.718383789062	233.5390167236329	-397.1814270019531	1154.359375	63.64042663574227	-339.4228820800781	1329.86767578125	20.9717674255372	-399.3460693359375	1362.093139648438	26.0562705993653	-291.7320556640625	
